PathFileType	4	(X/Y/Z)	D:\TRACE\v60_Jaco2_6-2-23\BothDRS_Motion3_9-v60.trc
DataRate	CameraRate	NumFrames	NumMarkers	Units	OrigDataRate	OrigDataStartFrame	OrigNumFrames
100.00	100.00	      31	9	mm	100.00	4376	      7000
Frame#	Time	front left toe			Front right toe			aft left toe			aft right toe			Arm			FL body			FR body			AL Body			AR Body			
		X1	Y1	Z1	X2	Y2	Z2	X3	Y3	Z3	X4	Y4	Z4	X5	Y5	Z5	X6	Y6	Z6	X7	Y7	Z7	X8	Y8	Z8	X9	Y9	Z9	

4376	43.750	-106.87196	-0.66279	-111.99536	278.68622	4.05879	-97.03149	-108.08033	60.65717	510.56442	248.63866	58.37346	514.51160	143.28888	1080.65955	-518.04730	7.23110	483.08316	-279.61658	165.31918	477.43027	-276.02359	0.85734	632.67285	653.31598	150.31123	618.10083	656.66888	
4377	43.760	-106.64854	1.62191	-111.96420	279.29779	2.57640	-96.80328	-107.95536	60.39109	511.76035	248.27689	59.71707	514.83606	143.10378	1081.92395	-517.56519	7.27108	483.29782	-279.04730	165.64949	477.65115	-275.91476	1.70122	634.35156	653.47223	151.57275	619.47498	656.93335	
4378	43.770	-103.61531	6.18630	-109.89362	279.60162	2.45588	-97.17460	-106.40263	59.83123	511.31183	246.19719	62.32810	517.93829	142.86185	1083.28601	-517.53082	7.44951	483.83438	-278.45361	166.68942	477.96866	-275.72864	3.10796	635.13898	653.85376	153.41791	620.62842	657.28772	
4379	43.780	-99.55615	9.60459	-106.58549	279.79584	2.61200	-96.90939	-105.96677	59.67874	511.53131	244.52599	69.36893	518.89655	142.89522	1084.06042	-517.54993	7.96991	484.25171	-278.01877	166.95349	478.28476	-275.39386	4.15295	635.62463	654.46344	153.45631	621.07141	657.39374	
4380	43.790	-97.37973	18.38723	-105.28476	279.90771	2.65120	-97.09301	-105.79182	59.50402	511.47043	242.48686	77.30663	519.64191	143.21638	1083.87646	-517.26178	8.32659	484.91498	-277.80600	167.16382	478.87720	-275.22318	5.23771	635.59760	654.53955	154.62733	620.71265	657.60010	
4381	43.800	-95.92757	29.97556	-106.12846	280.19510	2.59050	-96.84805	-105.49889	59.46618	511.22321	241.49098	89.14645	518.26337	143.43980	1083.35571	-516.89429	8.86999	485.26581	-277.77625	167.73228	479.25513	-275.01193	6.26272	635.43719	654.89368	156.24330	620.32397	657.83044	
4382	43.810	-96.22622	41.17329	-106.37965	280.82349	2.44485	-96.80157	-105.22520	59.32435	511.38898	243.16479	100.71384	517.41779	143.84924	1083.21912	-516.55896	9.35976	485.23999	-277.57785	168.49699	479.32959	-274.75076	6.69518	634.92041	655.19867	156.12611	619.96014	658.03546	
4383	43.820	-97.18520	54.10433	-107.27705	281.35281	2.24835	-96.71896	-105.14822	59.08563	511.55432	245.87762	113.25771	515.92194	144.23798	1083.14832	-516.27441	9.72713	485.27979	-277.47653	168.89691	479.21146	-274.49829	6.77152	634.37952	655.63544	156.29922	619.31757	658.52356	
4384	43.830	-98.30933	66.53760	-107.33672	281.61075	2.22505	-96.62006	-105.46986	59.22435	511.62613	249.79309	125.84734	515.29980	144.85129	1083.14941	-515.51428	10.58444	484.95895	-277.28586	169.30406	478.89124	-274.23303	6.78385	633.68134	655.79523	156.13272	618.43811	658.84540	
4385	43.840	-98.87964	77.98746	-106.65063	281.77887	2.25063	-96.45098	-105.41480	59.05463	511.77112	252.79953	137.82524	515.02740	145.81772	1083.13147	-514.66876	11.30422	484.54593	-276.81332	170.07124	478.47504	-273.77008	6.68194	633.01196	656.18146	156.38863	617.94342	659.29926	
4386	43.850	-99.28104	88.85690	-105.67834	281.92889	2.11725	-96.35643	-105.66820	59.14391	511.63235	255.62477	149.05417	515.00128	147.50060	1083.25439	-513.81195	11.64773	484.31729	-276.38562	170.59386	478.02786	-273.30820	6.93405	632.63458	656.37976	156.35970	617.44977	659.54553	
4387	43.860	-99.35458	98.89960	-105.01212	282.10529	2.08234	-96.24489	-105.45962	58.90075	511.65524	256.88446	158.76173	515.63470	148.85696	1083.43298	-513.16278	11.86918	484.12692	-276.19659	171.00169	477.70392	-272.88138	7.08917	632.38477	656.35638	156.58521	617.33746	659.90875	
4388	43.870	-98.81747	107.50468	-104.06876	282.35855	1.90533	-96.09619	-104.88275	58.30046	512.03345	257.51196	167.45738	516.48883	150.40240	1083.33838	-512.58026	12.12515	483.75900	-275.96130	171.18750	477.52676	-272.61392	6.97600	632.18951	656.96680	156.45457	617.01038	660.47192	
4389	43.880	-98.63261	114.65595	-103.30501	282.48932	1.90970	-95.92451	-104.21945	57.71445	512.19171	257.69363	174.42238	517.20453	151.02228	1082.92358	-512.20538	12.63338	483.57535	-275.59888	170.86670	477.47037	-272.17950	6.71142	631.97736	657.44666	156.52200	616.84583	660.94043	
4390	43.890	-100.06286	121.20468	-103.01830	282.63611	1.91755	-95.91846	-103.94344	57.42844	512.27203	257.83472	179.05437	518.76337	151.57921	1082.36353	-511.70688	13.26583	483.43912	-275.10822	171.32426	477.40527	-271.46149	6.48229	631.83160	657.85150	156.32764	616.74841	661.56061	
4391	43.900	-100.82947	124.99848	-102.61877	282.93719	1.97555	-95.79848	-103.88651	57.44067	512.41809	257.90771	180.90433	520.03064	151.94005	1081.98633	-511.55414	13.86834	483.48611	-274.67636	171.68250	477.45901	-270.92072	6.13377	631.64697	658.27808	157.51579	617.28778	663.36871	
4392	43.910	-101.94672	125.50211	-101.82296	283.35587	2.10560	-95.64475	-103.72036	57.21008	512.40436	258.81833	180.28288	521.59436	152.41934	1081.53772	-511.32895	14.18771	483.86749	-274.29846	172.04285	477.81201	-270.54047	5.83123	631.50555	658.65387	155.22221	616.45868	662.93500	
4393	43.920	-102.36940	121.92892	-100.54279	283.74875	2.25657	-95.47675	-103.05973	56.76977	512.29541	259.54987	177.09184	522.76947	152.94975	1081.46252	-510.97830	14.78270	484.24713	-273.84592	172.81119	478.14819	-269.88284	5.10462	631.57642	659.11987	154.69653	616.26215	663.39740	
4394	43.930	-102.48617	117.02303	-99.36044	284.08743	2.37971	-95.36304	-102.98454	56.59663	512.36816	259.85657	172.21405	523.54419	153.82091	1081.61243	-510.30026	15.23284	484.21664	-273.72476	173.55655	478.03513	-269.38565	4.63649	631.54541	659.44171	151.80502	616.86230	663.96222	
4395	43.940	-101.42679	110.50438	-98.26694	284.36212	2.45237	-95.25442	-102.78378	56.23821	512.42053	259.67175	166.38727	524.59967	154.83694	1082.07068	-509.42105	15.99695	484.27338	-273.20486	173.87686	478.16217	-268.81699	4.14808	631.23889	659.90247	151.26228	616.74573	664.40375	
4396	43.950	-101.25955	103.59074	-97.62769	284.66116	2.60059	-95.14853	-102.70531	56.09155	512.48016	259.83044	159.28799	525.52869	155.97865	1082.87439	-508.37280	16.22160	484.25659	-272.90900	174.10706	478.15698	-268.48386	3.74458	630.85773	659.98309	153.71883	615.86444	664.70984	
4397	43.960	-101.34497	95.24751	-97.19123	284.77118	2.63543	-95.08098	-102.64396	55.88647	512.43823	259.09354	150.77635	526.40509	156.61308	1083.92847	-507.33557	16.36012	484.28418	-272.67081	174.25502	478.27487	-268.17352	2.99266	630.78650	660.43091	150.93617	616.17413	665.20361	
4398	43.970	-101.38887	85.27808	-97.14913	284.96906	2.72676	-94.96799	-103.17122	56.34497	512.34137	259.20660	141.15660	527.20551	157.12236	1084.88867	-506.13071	16.25022	484.73373	-272.82285	174.39070	478.44135	-267.94244	2.68707	630.56415	660.73291	152.13443	615.24524	665.46887	
4399	43.980	-101.71033	74.42822	-96.91279	285.04813	2.75596	-94.96041	-102.71445	55.66093	512.59125	258.82620	130.33472	528.31995	157.17738	1085.59045	-505.18130	16.74322	485.00211	-272.48126	174.32907	479.02118	-267.60150	2.20252	630.08264	660.91309	152.16974	614.72809	665.89191	
4400	43.990	-102.08321	62.97001	-96.17734	285.26016	2.83392	-94.84233	-102.75020	55.33538	512.64063	258.31848	118.94065	529.33282	157.37967	1086.10046	-504.36664	17.03877	485.23868	-272.23828	174.98529	479.07968	-267.04251	1.20080	629.42902	661.15155	150.93112	614.29175	666.14563	
4401	44.000	-102.12578	51.86494	-95.39681	285.33075	2.85697	-94.84073	-102.69171	54.94132	512.73578	257.31827	106.95858	530.29852	157.60187	1086.13831	-503.83710	17.55688	485.27539	-271.96893	175.34383	479.21185	-266.95224	0.42338	629.04266	661.64673	149.77164	613.49402	666.73663	
4402	44.010	-102.18482	41.16070	-94.46587	285.41464	2.88947	-94.67715	-102.69696	54.62601	512.82684	256.22665	96.18845	531.34625	157.94040	1086.01184	-503.39938	17.82265	485.39090	-271.84561	175.81454	479.36368	-266.42087	-0.30856	628.30359	661.75995	149.15462	612.97052	667.05554	
4403	44.020	-101.93479	31.03077	-93.95152	285.51254	2.93612	-94.63393	-102.66324	54.37016	512.78711	254.96671	86.07796	532.12488	158.48744	1085.71948	-503.00537	17.98934	485.48288	-271.74155	175.93695	479.61581	-266.09671	-0.77391	627.79059	662.04517	148.55206	612.55597	667.56183	
4404	44.030	-102.29077	21.46651	-93.67642	285.53665	2.93568	-94.48696	-102.26376	53.96194	512.82178	253.94504	76.64246	532.60229	159.10228	1085.56372	-502.61130	18.01011	485.57272	-271.54617	176.01077	479.59991	-265.72678	-1.38495	627.72009	662.39697	148.51270	612.38232	667.95941	
4405	44.040	-102.57801	12.82984	-93.48308	285.61621	2.93980	-94.42992	-102.09430	53.60394	512.97589	252.95050	67.87986	532.92084	159.80045	1085.45105	-502.04987	18.07356	485.45523	-271.31839	176.06030	479.50052	-265.40854	-2.16110	627.22449	662.65674	147.88789	612.09766	668.42493	
4406	44.050	-102.97121	5.43306	-93.26721	285.80460	3.00313	-94.25905	-101.88235	53.39121	513.03168	252.30005	60.28318	533.16254	160.27307	1085.59741	-501.38837	18.16410	485.27042	-271.10699	176.05220	479.40903	-264.86575	-2.73120	626.98706	662.77698	146.61072	611.75299	668.80273	
